<?xml version="1.0" encoding="UTF-8" standalone="no"?>
<svg
   xmlns:dc="http://purl.org/dc/elements/1.1/"
   xmlns:cc="http://creativecommons.org/ns#"
   xmlns:rdf="http://www.w3.org/1999/02/22-rdf-syntax-ns#"
   xmlns:svg="http://www.w3.org/2000/svg"
   xmlns="http://www.w3.org/2000/svg"
   xmlns:sodipodi="http://sodipodi.sourceforge.net/DTD/sodipodi-0.dtd"
   xmlns:inkscape="http://www.inkscape.org/namespaces/inkscape"
   width="19.999969mm"
   height="19.999939mm"
   viewBox="0 0 19.999969 19.999939"
   version="1.1"
   id="svg8"
   inkscape:version="1.0.1 (0767f8302a, 2020-10-17)"
   sodipodi:docname="splash-200x200.svg"
   inkscape:export-filename="/home/ben/projects/zoomore/assets/splash-200x200.png"
   inkscape:export-xdpi="254"
   inkscape:export-ydpi="254">
  <defs
     id="defs2" />
  <sodipodi:namedview
     id="base"
     pagecolor="#ffffff"
     bordercolor="#666666"
     borderopacity="1.0"
     inkscape:pageopacity="0.0"
     inkscape:pageshadow="2"
     inkscape:zoom="6.8420644"
     inkscape:cx="41.882249"
     inkscape:cy="43.680976"
     inkscape:document-units="mm"
     inkscape:current-layer="text835"
     inkscape:document-rotation="0"
     showgrid="false"
     fit-margin-top="0"
     fit-margin-left="0"
     fit-margin-right="0"
     fit-margin-bottom="0"
     inkscape:window-width="1528"
     inkscape:window-height="836"
     inkscape:window-x="72"
     inkscape:window-y="27"
     inkscape:window-maximized="1" />
  <metadata
     id="metadata5">
    <rdf:RDF>
      <cc:Work
         rdf:about="">
        <dc:format>image/svg+xml</dc:format>
        <dc:type
           rdf:resource="http://purl.org/dc/dcmitype/StillImage" />
        <dc:title />
      </cc:Work>
    </rdf:RDF>
  </metadata>
  <g
     inkscape:label="Layer 1"
     inkscape:groupmode="layer"
     id="layer1"
     transform="translate(-30.793429,-99.999351)">
    <g
       aria-label="z"
       transform="scale(1.1988102,0.83416042)"
       id="text835"
       style="font-style:normal;font-weight:normal;font-size:48.2587px;line-height:1.25;font-family:sans-serif;fill:#000000;fill-opacity:1;stroke:none;stroke-width:1.20648">
      <g
         id="g910"
         style="fill:#eeeeee;fill-opacity:1"
         transform="translate(0,-0.63437042)">
        <path
           d="m 26.009604,130.69849 q -0.10752,0 -0.164033,-0.12145 -0.05652,-0.11162 -0.05652,-0.27216 v -1.29032 q 0,-0.14482 0.01103,-0.2095 0.0069,-0.0567 0.051,-0.1273 0.03997,-0.0646 0.102001,-0.0881 0.06203,-0.0254 0.124058,-0.0254 0.05652,0 0.08546,0 h 2.3199 q 0.03997,0 0.102001,0 0.06203,0.008 0.0896,0.0646 0.02894,0.0646 0.02894,0.1273 0,0.0646 -0.01654,0.1293 -0.0069,0.0157 -0.051,0.13714 l -2.095216,5.34136 q -0.03446,0.0803 -0.03997,0.11162 -0.0055,0.0314 -0.0055,0.0567 -0.0014,0.009 -0.0014,0.0195 0,0.0195 0.0069,0.0352 0.0124,0.0255 0.05652,0.041 0.03997,0.0157 0.124059,0.0157 h 0.88771 q 0.05513,0 0.100626,-0.008 0.03997,0 0.06754,-0.0332 0.02894,-0.0314 0.03997,-0.0939 0.01103,-0.0646 0.01103,-0.14482 v -1.01228 q 0,-0.0959 0.01103,-0.1586 0.0069,-0.0567 0.03446,-0.10578 0.05652,-0.0803 0.20263,-0.0803 h 0.4921 q 0.07857,0 0.140601,0.0177 0.05652,0.0235 0.08546,0.0627 0.02757,0.0489 0.03309,0.11361 0.0055,0.0627 0.0055,0.16055 v 1.38626 q 0,0.12145 -0.01654,0.20166 -0.02206,0.0802 -0.07306,0.14498 -0.051,0.0626 -0.09649,0.0782 -0.04549,0.0255 -0.135087,0.0255 l -2.332308,0.008 q -0.135085,0 -0.191601,-0.0177 -0.05652,-0.008 -0.113032,-0.0881 -0.03446,-0.0392 -0.03446,-0.14298 0,-0.0803 0.02894,-0.16055 l 2.038701,-5.26893 q 0.02757,-0.0803 0.04411,-0.14498 0.01792,-0.0567 0.01792,-0.0959 0,-0.0412 -0.01792,-0.0646 -0.02757,-0.0392 -0.135087,-0.0392 -0.03997,0 -0.06203,0 H 26.58578 q -0.129572,0 -0.215035,0.0803 -0.05652,0.047 -0.102001,0.15858 -0.04963,0.11362 -0.04963,0.22517 v 0.65789 q 0,0.16055 -0.051,0.27215 -0.051,0.12146 -0.158519,0.12146 z"
           style="font-style:normal;font-variant:normal;font-weight:normal;font-stretch:normal;font-size:5.21649px;line-height:1.25;font-family:Checkbook;-inkscape-font-specification:Checkbook;fill:#eeeeee;fill-opacity:1;stroke:none;stroke-width:0.202963"
           id="path13" />
        <path
           d="m 29.117968,131.20757 q 0.03309,-0.043 0.09236,-0.0587 0.05789,-0.009 0.15852,-0.009 h 1.444596 q 0.05513,0 0.09512,0.009 0.04136,0.009 0.06616,0.0392 0.05927,0.0627 0.05927,0.19188 v 3.50087 q 0,0.1293 -0.051,0.20168 -0.03309,0.043 -0.07719,0.0529 -0.04411,0.0138 -0.110275,0.0138 l -1.461138,0.005 q -0.04273,0 -0.06616,0 -0.06066,0 -0.09097,-0.0138 -0.03309,-0.009 -0.06203,-0.0529 -0.03309,-0.043 -0.04136,-0.0999 -0.0096,-0.0587 -0.0096,-0.14482 v -3.45192 q 0,-0.0959 0.05376,-0.18209 z m 0.496237,0.31719 q -0.06892,0 -0.11441,0.0138 -0.04687,0.0195 -0.08409,0.0686 -0.06616,0.0861 -0.06616,0.24476 v 2.54145 q 0,0.1253 0.0193,0.19775 0.01792,0.0764 0.07581,0.13899 0.04136,0.0392 0.09236,0.0529 0.04824,0.0157 0.106135,0.0157 h 0.476938 q 0.06892,0 0.13233,-0.0294 0.05927,-0.0294 0.08409,-0.0822 0.02206,-0.0471 0.02894,-0.10578 0.0041,-0.0529 0.0041,-0.14497 v -1.3138 q 0,-0.0587 0.0069,-0.0959 0.0041,-0.0392 0.04136,-0.10578 0.03584,-0.0627 0.132329,-0.0861 0.09097,-0.0195 0.139221,-0.0334 0.04825,-0.0157 0.05513,-0.0627 0.0027,-0.0489 0.0027,-0.0881 0,-0.0567 0,-0.0861 v -0.80865 q 0,-0.0372 -0.01379,-0.0802 -0.0193,-0.045 -0.04411,-0.0782 -0.06203,-0.0724 -0.176439,-0.0724 z"
           style="font-style:normal;font-variant:normal;font-weight:normal;font-stretch:normal;font-size:5.21649px;line-height:1.25;font-family:Checkbook;-inkscape-font-specification:Checkbook;fill:#eeeeee;fill-opacity:1;stroke:none;stroke-width:0.202963"
           id="path15" />
        <path
           d="m 31.334488,131.20757 q 0.03308,-0.043 0.09236,-0.0587 0.0579,-0.009 0.15852,-0.009 h 1.444597 q 0.05513,0 0.09512,0.009 0.04136,0.009 0.06616,0.0392 0.05927,0.0627 0.05927,0.19188 v 3.50087 q 0,0.1293 -0.051,0.20168 -0.03308,0.043 -0.07719,0.0529 -0.04411,0.0138 -0.110274,0.0138 l -1.461139,0.005 q -0.04273,0 -0.06616,0 -0.06065,0 -0.09097,-0.0138 -0.03309,-0.009 -0.06203,-0.0529 -0.03309,-0.043 -0.04136,-0.0999 -0.0096,-0.0587 -0.0096,-0.14482 v -3.45192 q 0,-0.0959 0.05376,-0.18209 z m 0.496235,0.31719 q -0.06892,0 -0.11441,0.0138 -0.04687,0.0195 -0.08409,0.0686 -0.06616,0.0861 -0.06616,0.24476 v 2.54145 q 0,0.1253 0.0193,0.19775 0.01792,0.0764 0.07582,0.13899 0.04136,0.0392 0.09236,0.0529 0.04825,0.0157 0.106135,0.0157 h 0.476938 q 0.06892,0 0.132329,-0.0294 0.05927,-0.0294 0.08409,-0.0822 0.02206,-0.0471 0.02894,-0.10578 0.0041,-0.0529 0.0041,-0.14497 v -1.3138 q 0,-0.0587 0.0069,-0.0959 0.0041,-0.0392 0.04136,-0.10578 0.03584,-0.0627 0.13233,-0.0861 0.09097,-0.0195 0.139221,-0.0334 0.04824,-0.0157 0.05513,-0.0627 0.0027,-0.0489 0.0027,-0.0881 0,-0.0567 0,-0.0861 v -0.80865 q 0,-0.0372 -0.01378,-0.0802 -0.0193,-0.045 -0.04411,-0.0782 -0.06203,-0.0724 -0.17644,-0.0724 z"
           style="font-style:normal;font-variant:normal;font-weight:normal;font-stretch:normal;font-size:5.21649px;line-height:1.25;font-family:Checkbook;-inkscape-font-specification:Checkbook;fill:#eeeeee;fill-opacity:1;stroke:none;stroke-width:0.202963"
           id="path17" />
      </g>
      <g
         id="g905"
         style="fill:#b6c5c9;fill-opacity:1"
         transform="translate(0,-0.63437042)">
        <path
           d="m 33.493112,134.91207 v -3.5322 q 0,-0.0372 0.0041,-0.0764 0,-0.0334 0.01792,-0.0724 0.03997,-0.0666 0.106135,-0.0666 h 0.315661 q 0.08133,0 0.125438,0.0471 0.03997,0.0489 0.06479,0.11545 l 0.275686,0.81453 q 0.02206,0.0959 0.08409,0.0959 0.02619,0 0.04825,-0.0255 0.01792,-0.0177 0.03584,-0.0607 l 0.363907,-0.82431 q 0.01516,-0.0332 0.04136,-0.0666 0.02481,-0.0294 0.03997,-0.0489 0.04411,-0.043 0.113032,-0.043 h 0.594104 q 0.0703,0 0.117166,0.043 0.03033,0.0294 0.04136,0.0724 0.0069,0.043 0.0069,0.11946 0,0.0529 0,0.0784 v 3.47541 q 0,0.1253 -0.051,0.17818 -0.03033,0.0334 -0.05927,0.0372 -0.02894,0.009 -0.08822,0.009 l -0.285335,-0.005 q -0.0634,0 -0.08822,-0.009 -0.02894,-0.006 -0.05237,-0.0489 -0.02067,-0.0372 -0.02067,-0.13898 v -3.19934 q 0,-0.0489 0,-0.10178 -0.0082,-0.0489 -0.0441,-0.0627 -0.0041,0 -0.0082,0 -0.02067,0 -0.04687,0.0294 -0.03309,0.0372 -0.04825,0.0822 l -0.494857,1.10626 q -0.02619,0.0627 -0.05513,0.0959 -0.03309,0.0392 -0.07306,0.0392 -0.09236,0 -0.13233,-0.1253 l -0.40388,-1.15129 q -0.01516,-0.047 -0.04136,-0.0822 -0.02067,-0.0235 -0.04273,-0.0235 -0.0082,0 -0.01516,0 -0.03997,0.0138 -0.051,0.0587 -0.01516,0.047 -0.01516,0.11945 v 3.15628 q 0,0.0959 -0.03722,0.17425 -0.03584,0.0823 -0.110275,0.0823 -0.06479,0 -0.09787,-0.0823 -0.03309,-0.0783 -0.03309,-0.18405 z m 0.740219,-0.88893 q 0.05651,-0.0686 0.133708,-0.0686 h 0.285335 q 0.07306,0 0.124059,0.0587 0.05239,0.0627 0.05239,0.1586 v 0.746 q 0,0.0861 -0.0041,0.1253 -0.0069,0.0392 -0.03997,0.0764 -0.03722,0.043 -0.07719,0.0489 -0.03997,0.009 -0.07719,0.009 h -0.267415 q -0.06616,0 -0.09236,-0.009 -0.02894,-0.006 -0.051,-0.0509 -0.02206,-0.047 -0.02619,-0.0843 -0.0069,-0.0392 -0.0069,-0.11546 v -0.72641 q 0,-0.0489 0.01378,-0.0959 0.01516,-0.0489 0.03309,-0.0724 z"
           style="font-style:normal;font-variant:normal;font-weight:normal;font-stretch:normal;font-size:5.21649px;line-height:1.25;font-family:Checkbook;-inkscape-font-specification:Checkbook;fill:#b6c5c9;fill-opacity:1;stroke:none;stroke-width:0.202963"
           id="path19" />
        <path
           d="m 36.186569,131.20757 q 0.03309,-0.043 0.09236,-0.0587 0.0579,-0.009 0.15852,-0.009 h 1.444597 q 0.05513,0 0.09511,0.009 0.04136,0.009 0.06616,0.0392 0.05927,0.0627 0.05927,0.19188 v 3.50087 q 0,0.1293 -0.051,0.20168 -0.03309,0.043 -0.07719,0.0529 -0.04411,0.0138 -0.110275,0.0138 l -1.461138,0.005 q -0.04273,0 -0.06616,0 -0.06066,0 -0.09097,-0.0138 -0.03309,-0.009 -0.06203,-0.0529 -0.03308,-0.043 -0.04136,-0.0999 -0.0096,-0.0587 -0.0096,-0.14482 v -3.45192 q 0,-0.0959 0.05376,-0.18209 z m 0.496236,0.31719 q -0.06892,0 -0.114409,0.0138 -0.04687,0.0195 -0.08409,0.0686 -0.06616,0.0861 -0.06616,0.24476 v 2.54145 q 0,0.1253 0.0193,0.19775 0.01792,0.0764 0.07582,0.13899 0.04136,0.0392 0.09236,0.0529 0.04824,0.0157 0.106135,0.0157 h 0.476936 q 0.06892,0 0.13233,-0.0294 0.05927,-0.0294 0.08409,-0.0822 0.02206,-0.0471 0.02894,-0.10578 0.0041,-0.0529 0.0041,-0.14497 v -1.3138 q 0,-0.0587 0.0069,-0.0959 0.0041,-0.0392 0.04136,-0.10578 0.03584,-0.0627 0.132328,-0.0861 0.09098,-0.0195 0.139222,-0.0334 0.04825,-0.0157 0.05513,-0.0627 0.0027,-0.0489 0.0027,-0.0881 0,-0.0567 0,-0.0861 v -0.80865 q 0,-0.0372 -0.01379,-0.0802 -0.0193,-0.045 -0.04411,-0.0782 -0.06203,-0.0724 -0.176439,-0.0724 z"
           style="font-style:normal;font-variant:normal;font-weight:normal;font-stretch:normal;font-size:5.21649px;line-height:1.25;font-family:Checkbook;-inkscape-font-specification:Checkbook;fill:#b6c5c9;fill-opacity:1;stroke:none;stroke-width:0.202963"
           id="path21" />
        <path
           d="m 38.448576,131.18407 q 0.02067,-0.0255 0.05789,-0.0352 0.03722,-0.009 0.07719,-0.009 h 1.342592 q 0.03997,0 0.08133,0 0.03997,0.006 0.08409,0.0489 0.03997,0.0489 0.03997,0.17818 v 1.22766 q 0,0.0823 0.0082,0.11945 0.0027,0.0392 0.02895,0.0959 0.02481,0.0646 0.139222,0.10177 0.110275,0.043 0.13233,0.0783 0.02206,0.0334 0.02894,0.0744 0.0082,0.045 0.0082,0.10177 v 1.74261 q 0,0.0861 -0.0041,0.12146 -0.0082,0.0334 -0.03309,0.0627 -0.02894,0.0274 -0.05513,0.0372 -0.02481,0.0157 -0.08133,0.0157 h -0.304633 q -0.06892,0 -0.130952,-0.0587 -0.02206,-0.0235 -0.03033,-0.0921 -0.0096,-0.0607 -0.0096,-0.13898 v -1.23743 q 0,-0.0861 -0.0041,-0.1253 -0.0082,-0.0334 -0.03722,-0.0901 -0.04825,-0.0979 -0.154385,-0.0979 h -0.36666 q -0.07719,0 -0.110274,0.006 -0.03722,0.009 -0.07306,0.0529 -0.06203,0.0764 -0.06203,0.22714 v 1.26876 q 0,0.0392 0,0.0587 0,0.0823 -0.0041,0.0959 -0.01792,0.0332 -0.02481,0.0489 -0.05652,0.0861 -0.151627,0.0861 h -0.238468 q -0.07306,0 -0.125438,-0.0235 -0.051,-0.0195 -0.07995,-0.0861 -0.01379,-0.0392 -0.01379,-0.10577 0,-0.0451 0,-0.0744 v -3.49303 q 0,-0.1253 0.06616,-0.18211 z m 0.479695,0.33091 q -0.04687,0 -0.08822,0 -0.04411,0.006 -0.08684,0.0489 -0.08546,0.0764 -0.08546,0.21147 v 0.85173 q 0,0.14482 0.05927,0.21732 0.03997,0.047 0.09097,0.0666 0.05237,0.0235 0.117168,0.0235 h 0.616159 q 0.08546,0 0.133708,-0.0195 0.04273,-0.0177 0.08684,-0.0803 0.05652,-0.0921 0.05652,-0.24082 v -0.79887 q 0,-0.0921 -0.01654,-0.14882 -0.01792,-0.0529 -0.06892,-0.0921 -0.03997,-0.0392 -0.106135,-0.0392 -0.02619,0 -0.03997,0 z"
           style="font-style:normal;font-variant:normal;font-weight:normal;font-stretch:normal;font-size:5.21649px;line-height:1.25;font-family:Checkbook;-inkscape-font-specification:Checkbook;fill:#b6c5c9;fill-opacity:1;stroke:none;stroke-width:0.202963"
           id="path23" />
        <path
           d="m 40.756071,131.21148 q 0.03309,-0.0372 0.07306,-0.0529 0.03722,-0.009 0.103386,-0.009 h 1.1951 q 0.07719,0 0.133708,0.0489 0.051,0.0529 0.051,0.14482 0,0.0998 -0.051,0.14298 -0.051,0.0489 -0.133708,0.0489 H 41.28126 q -0.07719,0 -0.13233,0.0294 -0.02206,0.009 -0.05927,0.043 -0.03997,0.0392 -0.0579,0.0959 -0.02206,0.0567 -0.02206,0.11546 v 0.76557 q 0,0.0764 0.0069,0.13513 0.0082,0.0627 0.0386,0.11546 0.0317,0.0529 0.09373,0.0706 0.06203,0.0255 0.15025,0.0255 h 0.803626 q 0.08822,0 0.150248,0.0431 0.06203,0.043 0.06203,0.15468 0,0.10962 -0.06892,0.15858 -0.04824,0.0334 -0.146114,0.0334 h -0.529318 q -0.04687,0 -0.08684,0.0138 -0.04549,0.0157 -0.07719,0.0587 -0.0634,0.0823 -0.0634,0.22125 v 0.86738 q 0,0.1233 0.04411,0.20167 0.03308,0.0529 0.08409,0.0706 0.04687,0.0255 0.117167,0.0255 h 0.538967 q 0.07719,0 0.133708,0.043 0.05376,0.043 0.05376,0.14882 0,0.0999 -0.05376,0.13898 -0.05652,0.0392 -0.133708,0.0392 H 41.02489 q -0.118545,0 -0.169547,-0.009 -0.051,-0.005 -0.09097,-0.0529 -0.04136,-0.043 -0.04825,-0.0959 -0.01103,-0.0489 -0.01103,-0.13114 v -3.43038 q 0,-0.0822 0.01103,-0.13114 0.0069,-0.0471 0.03997,-0.0861 z"
           style="font-style:normal;font-variant:normal;font-weight:normal;font-stretch:normal;font-size:5.21649px;line-height:1.25;font-family:Checkbook;-inkscape-font-specification:Checkbook;fill:#b6c5c9;fill-opacity:1;stroke:none;stroke-width:0.202963"
           id="path25" />
      </g>
    </g>
  </g>
</svg>
