<?xml version="1.0" encoding="UTF-8" standalone="no"?>
<svg
   xmlns:dc="http://purl.org/dc/elements/1.1/"
   xmlns:cc="http://creativecommons.org/ns#"
   xmlns:rdf="http://www.w3.org/1999/02/22-rdf-syntax-ns#"
   xmlns:svg="http://www.w3.org/2000/svg"
   xmlns="http://www.w3.org/2000/svg"
   xmlns:sodipodi="http://sodipodi.sourceforge.net/DTD/sodipodi-0.dtd"
   xmlns:inkscape="http://www.inkscape.org/namespaces/inkscape"
   width="19.999969mm"
   height="19.999939mm"
   viewBox="0 0 19.999969 19.999939"
   version="1.1"
   id="svg8"
   inkscape:version="1.0.1 (0767f8302a, 2020-10-17)"
   sodipodi:docname="zoomore-icon.svg"
   inkscape:export-filename="/home/ben/projects/zoomore/assets/zoomore-icon-512x512.png"
   inkscape:export-xdpi="650.23999"
   inkscape:export-ydpi="650.23999">
  <defs
     id="defs2" />
  <sodipodi:namedview
     id="base"
     pagecolor="#ffffff"
     bordercolor="#666666"
     borderopacity="1.0"
     inkscape:pageopacity="0.0"
     inkscape:pageshadow="2"
     inkscape:zoom="3.0778631"
     inkscape:cx="36.668766"
     inkscape:cy="38.273507"
     inkscape:document-units="mm"
     inkscape:current-layer="text835"
     inkscape:document-rotation="0"
     showgrid="false"
     fit-margin-top="0"
     fit-margin-left="0"
     fit-margin-right="0"
     fit-margin-bottom="0"
     inkscape:window-width="1528"
     inkscape:window-height="836"
     inkscape:window-x="72"
     inkscape:window-y="27"
     inkscape:window-maximized="1" />
  <metadata
     id="metadata5">
    <rdf:RDF>
      <cc:Work
         rdf:about="">
        <dc:format>image/svg+xml</dc:format>
        <dc:type
           rdf:resource="http://purl.org/dc/dcmitype/StillImage" />
        <dc:title />
      </cc:Work>
    </rdf:RDF>
  </metadata>
  <g
     inkscape:label="Layer 1"
     inkscape:groupmode="layer"
     id="layer1"
     transform="translate(-30.793429,-99.999351)">
    <g
       aria-label="z"
       transform="scale(1.1988102,0.83416042)"
       id="text835"
       style="font-style:normal;font-weight:normal;font-size:48.2587px;line-height:1.25;font-family:sans-serif;fill:#000000;fill-opacity:1;stroke:none;stroke-width:1.20648">
      <path
         d="m 29.31639,129.03266 q -0.390055,0 -0.600685,-0.28864 -0.21063,-0.26524 -0.21063,-0.65529 v -3.08144 q 0,-0.35105 0.0468,-0.49927 0.02341,-0.14042 0.187226,-0.30424 0.14042,-0.15603 0.366652,-0.21063 0.234033,-0.0625 0.460264,-0.0625 0.210631,0 0.312045,0 h 8.534404 q 0.148221,0 0.374452,0 0.234033,0.0156 0.335448,0.16382 0.101414,0.14042 0.101414,0.29644 0,0.14822 -0.06241,0.30425 -0.0234,0.039 -0.187226,0.32765 l -7.699687,12.77043 q -0.132618,0.19503 -0.148221,0.27305 -0.02341,0.0702 -0.02341,0.13261 -0.0078,0.0234 -0.0078,0.0468 0,0.0468 0.03121,0.0858 0.04681,0.0624 0.195028,0.10141 0.156022,0.0312 0.468065,0.0312 h 3.26086 q 0.202829,0 0.374453,-0.0156 0.148221,0 0.249635,-0.078 0.101415,-0.078 0.140421,-0.23402 0.04681,-0.14823 0.04681,-0.34325 v -2.41835 q 0,-0.22623 0.03901,-0.37445 0.0234,-0.14042 0.124818,-0.25743 0.21063,-0.19503 0.748905,-0.19503 h 1.809856 q 0.28864,0 0.514872,0.0468 0.21063,0.0547 0.312044,0.14822 0.101415,0.11701 0.124817,0.27303 0.0156,0.14823 0.0156,0.38226 v 3.31547 q 0,0.28864 -0.0546,0.48368 -0.08581,0.18722 -0.273039,0.34324 -0.187226,0.14822 -0.351049,0.18723 -0.171624,0.0624 -0.499271,0.0624 l -8.58121,0.0156 q -0.49147,0 -0.702099,-0.039 -0.21063,-0.0156 -0.413459,-0.21063 -0.124817,-0.0936 -0.124817,-0.34325 0,-0.18722 0.101415,-0.38225 L 36.15015,126.232 q 0.101414,-0.18722 0.163823,-0.34324 0.07021,-0.14042 0.07021,-0.23404 0,-0.0936 -0.07021,-0.14821 -0.101414,-0.0936 -0.499271,-0.0936 -0.140419,0 -0.226231,0 h -4.150186 q -0.475867,0 -0.787911,0.18723 -0.210629,0.11702 -0.374453,0.38225 -0.187227,0.27304 -0.187227,0.53828 v 1.56802 q 0,0.39005 -0.187226,0.65529 -0.187226,0.28865 -0.585082,0.28865 z"
         style="font-style:normal;font-variant:normal;font-weight:normal;font-stretch:normal;font-family:Checkbook;-inkscape-font-specification:Checkbook;stroke-width:0.798846"
         id="path837" />
    </g>
  </g>
</svg>
